<svg width="101" height="17" viewBox="0 0 101 17" fill="none" xmlns="http://www.w3.org/2000/svg">
<path d="M0.756 4.6H4.908C5.612 4.6 6.22 4.724 6.732 4.972C7.252 5.22 7.648 5.576 7.92 6.04C8.2 6.504 8.34 7.052 8.34 7.684C8.34 8.236 8.232 8.728 8.016 9.16C7.808 9.584 7.504 9.928 7.104 10.192L8.508 13H5.316L4.32 10.768H3.636V13H0.756V4.6ZM4.44 8.632C4.76 8.632 5.004 8.556 5.172 8.404C5.348 8.244 5.436 8.02 5.436 7.732C5.436 7.436 5.348 7.212 5.172 7.06C5.004 6.908 4.76 6.832 4.44 6.832H3.588V8.632H4.44ZM9.62709 4.6H15.6751V6.748H12.4471V7.72H15.3631V9.808H12.4471V10.816H15.7951V13H9.62709V4.6ZM16.3016 4.6H19.3976L20.2016 7.204L20.8016 9.22H20.8496L21.4616 7.204L22.2656 4.6H25.3496L22.3376 13H19.3136L16.3016 4.6ZM26.1388 4.6H29.0428V13H26.1388V4.6ZM30.5451 4.6H35.1411C36.0051 4.6 36.6851 4.8 37.1811 5.2C37.6851 5.6 37.9371 6.148 37.9371 6.844C37.9371 7.26 37.8451 7.632 37.6611 7.96C37.4851 8.288 37.2291 8.548 36.8931 8.74C37.2851 8.908 37.5971 9.168 37.8291 9.52C38.0611 9.864 38.1771 10.26 38.1771 10.708C38.1771 11.156 38.0571 11.556 37.8171 11.908C37.5851 12.252 37.2531 12.52 36.8211 12.712C36.3891 12.904 35.8971 13 35.3451 13H30.5451V4.6ZM34.5171 11.02C34.7571 11.02 34.9411 10.964 35.0691 10.852C35.2051 10.732 35.2731 10.568 35.2731 10.36C35.2731 10.144 35.2051 9.98 35.0691 9.868C34.9411 9.748 34.7571 9.688 34.5171 9.688H33.3411V11.02H34.5171ZM34.3611 7.852C34.5931 7.852 34.7731 7.796 34.9011 7.684C35.0291 7.572 35.0931 7.412 35.0931 7.204C35.0931 6.996 35.0291 6.836 34.9011 6.724C34.7731 6.612 34.5931 6.556 34.3611 6.556H33.3411V7.852H34.3611ZM39.2169 4.6H45.2649V6.748H42.0369V7.72H44.9529V9.808H42.0369V10.816H45.3849V13H39.2169V4.6ZM46.6115 4.6H50.3915C51.3115 4.6 52.1155 4.772 52.8035 5.116C53.4995 5.46 54.0355 5.952 54.4115 6.592C54.7955 7.224 54.9875 7.96 54.9875 8.8C54.9875 9.64 54.7955 10.38 54.4115 11.02C54.0355 11.652 53.4995 12.14 52.8035 12.484C52.1155 12.828 51.3115 13 50.3915 13H46.6115V4.6ZM50.3075 10.444C50.8515 10.444 51.2795 10.3 51.5915 10.012C51.9035 9.716 52.0595 9.312 52.0595 8.8C52.0595 8.288 51.9035 7.888 51.5915 7.6C51.2795 7.304 50.8515 7.156 50.3075 7.156H49.4795V10.444H50.3075ZM60.0061 7.228H57.5701V4.6H65.3461V7.228H62.9101V13H60.0061V7.228ZM70.3352 13.18C69.4312 13.18 68.6272 12.996 67.9232 12.628C67.2192 12.252 66.6712 11.732 66.2792 11.068C65.8872 10.404 65.6912 9.648 65.6912 8.8C65.6912 7.952 65.8872 7.196 66.2792 6.532C66.6712 5.868 67.2192 5.352 67.9232 4.984C68.6272 4.608 69.4312 4.42 70.3352 4.42C71.2472 4.42 72.0552 4.608 72.7592 4.984C73.4632 5.352 74.0112 5.868 74.4032 6.532C74.7952 7.196 74.9912 7.952 74.9912 8.8C74.9912 9.648 74.7952 10.404 74.4032 11.068C74.0112 11.732 73.4632 12.252 72.7592 12.628C72.0552 12.996 71.2472 13.18 70.3352 13.18ZM68.6192 8.8C68.6192 9.312 68.7792 9.732 69.0992 10.06C69.4192 10.38 69.8312 10.54 70.3352 10.54C70.8392 10.54 71.2512 10.38 71.5712 10.06C71.8992 9.732 72.0632 9.312 72.0632 8.8C72.0632 8.288 71.8992 7.872 71.5712 7.552C71.2512 7.224 70.8392 7.06 70.3352 7.06C69.8312 7.06 69.4192 7.224 69.0992 7.552C68.7792 7.872 68.6192 8.288 68.6192 8.8ZM80.2727 13.18C79.3687 13.18 78.5647 12.996 77.8607 12.628C77.1567 12.252 76.6087 11.732 76.2167 11.068C75.8247 10.404 75.6287 9.648 75.6287 8.8C75.6287 7.952 75.8247 7.196 76.2167 6.532C76.6087 5.868 77.1567 5.352 77.8607 4.984C78.5647 4.608 79.3687 4.42 80.2727 4.42C81.1847 4.42 81.9927 4.608 82.6967 4.984C83.4007 5.352 83.9487 5.868 84.3407 6.532C84.7327 7.196 84.9287 7.952 84.9287 8.8C84.9287 9.648 84.7327 10.404 84.3407 11.068C83.9487 11.732 83.4007 12.252 82.6967 12.628C81.9927 12.996 81.1847 13.18 80.2727 13.18ZM78.5567 8.8C78.5567 9.312 78.7167 9.732 79.0367 10.06C79.3567 10.38 79.7687 10.54 80.2727 10.54C80.7767 10.54 81.1887 10.38 81.5087 10.06C81.8367 9.732 82.0007 9.312 82.0007 8.8C82.0007 8.288 81.8367 7.872 81.5087 7.552C81.1887 7.224 80.7767 7.06 80.2727 7.06C79.7687 7.06 79.3567 7.224 79.0367 7.552C78.7167 7.872 78.5567 8.288 78.5567 8.8ZM85.9982 4.6H88.9022V10.348H92.0942V13H85.9982V4.6ZM96.2566 13.18C95.1126 13.18 94.2206 12.924 93.5806 12.412C92.9486 11.892 92.6326 11.168 92.6326 10.24H95.4046C95.4046 10.512 95.4766 10.72 95.6206 10.864C95.7646 11.008 95.9726 11.08 96.2446 11.08C96.4766 11.08 96.6566 11.036 96.7846 10.948C96.9126 10.852 96.9766 10.72 96.9766 10.552C96.9766 10.344 96.8646 10.176 96.6406 10.048C96.4246 9.912 96.0766 9.804 95.5966 9.724C94.6046 9.556 93.8726 9.256 93.4006 8.824C92.9286 8.392 92.6926 7.808 92.6926 7.072C92.6926 6.248 92.9926 5.6 93.5926 5.128C94.2006 4.656 95.0326 4.42 96.0886 4.42C96.8086 4.42 97.4326 4.536 97.9606 4.768C98.4966 5 98.9086 5.336 99.1966 5.776C99.4926 6.208 99.6446 6.716 99.6526 7.3H96.9406C96.9406 7.036 96.8686 6.836 96.7246 6.7C96.5886 6.556 96.3926 6.484 96.1366 6.484C95.9126 6.484 95.7366 6.532 95.6086 6.628C95.4806 6.724 95.4166 6.852 95.4166 7.012C95.4166 7.204 95.5166 7.36 95.7166 7.48C95.9246 7.6 96.2806 7.708 96.7846 7.804C97.8326 8.004 98.5966 8.316 99.0766 8.74C99.5646 9.164 99.8086 9.736 99.8086 10.456C99.8086 11.312 99.4966 11.98 98.8726 12.46C98.2486 12.94 97.3766 13.18 96.2566 13.18Z" fill="black"/>
</svg>
