<svg width="16" height="17" viewBox="0 0 16 17" fill="none" xmlns="http://www.w3.org/2000/svg">
<path fill-rule="evenodd" clip-rule="evenodd" d="M3.92287 8.47828C3.92425 9.02856 4.03469 9.57307 4.24779 10.0804C4.46089 10.5877 4.77244 11.0478 5.16443 11.4341L5.92601 10.5896C5.63822 10.3147 5.40972 9.98393 5.25454 9.61762C5.09936 9.25122 5.02078 8.85695 5.02364 8.45908C5.02364 7.67117 5.33629 6.91543 5.893 6.35769C6.4497 5.79995 7.20499 5.48576 7.99314 5.48407C8.50769 5.47907 9.01329 5.61874 9.45228 5.88713L9.98988 4.88267C9.37438 4.53119 8.67628 4.3501 7.96754 4.35804C6.88676 4.37486 5.85615 4.81678 5.09906 5.58803C4.34196 6.35927 3.91938 7.3977 3.92287 8.47828Z" fill="#4F4F4F"/>
<path fill-rule="evenodd" clip-rule="evenodd" d="M10.9567 8.47833C10.9567 9.26184 10.6476 10.0138 10.0964 10.5707C9.5452 11.1278 8.79649 11.4449 8.01276 11.4533C7.53608 11.4585 7.06628 11.3394 6.64961 11.1079L6.08643 12.0932C6.67864 12.4055 7.33682 12.5722 8.00636 12.5794C8.81131 12.5755 9.59725 12.3347 10.266 11.8869C10.9348 11.4391 11.4569 10.8042 11.7668 10.0616C12.0768 9.31893 12.161 8.50148 12.009 7.71126C11.857 6.92105 11.4753 6.19314 10.9119 5.61847L10.1311 6.4502C10.3967 6.71641 10.6064 7.0329 10.7482 7.38114C10.89 7.72937 10.9608 8.10238 10.9567 8.47833Z" fill="#4F4F4F"/>
<path fill-rule="evenodd" clip-rule="evenodd" d="M2.64307 8.47833C2.64209 9.20835 2.79096 9.93079 3.08047 10.6009C3.36998 11.2712 3.79398 11.8749 4.32622 12.3747L5.1198 11.5301C4.51279 10.9443 4.09425 10.1909 3.91764 9.36616C3.74103 8.54145 3.81437 7.6828 4.1283 6.89993C4.44223 6.11706 4.98249 5.44552 5.68006 4.9711C6.37762 4.49669 7.20082 4.24094 8.04449 4.23653C8.77554 4.23617 9.49344 4.4305 10.1244 4.79954L10.6876 3.79507C9.86759 3.33505 8.94152 3.09703 8.00124 3.10454C7.06093 3.11206 6.13888 3.36485 5.32628 3.83792C4.51368 4.31099 3.83869 4.98794 3.36809 5.80181C2.89749 6.61568 2.64758 7.53827 2.64307 8.47833Z" fill="#4F4F4F"/>
<path fill-rule="evenodd" clip-rule="evenodd" d="M12.2365 8.47839C12.2397 9.21064 12.0524 9.93114 11.693 10.5692C11.3336 11.2073 10.8144 11.7409 10.1863 12.1178C9.55827 12.4946 8.84307 12.7017 8.11075 12.7187C7.37847 12.7357 6.65434 12.562 6.00947 12.2148L5.44629 13.2192C6.23095 13.6475 7.11225 13.8677 8.0062 13.859C9.07246 13.8539 10.1134 13.5339 10.9982 12.9391C11.883 12.3444 12.5722 11.5014 12.9791 10.5162C13.3861 9.53089 13.4926 8.4474 13.2853 7.40182C13.0779 6.35624 12.5661 5.39525 11.8141 4.63965L11.0333 5.48417C11.8057 6.2897 12.2368 7.36252 12.2365 8.47839Z" fill="#4F4F4F"/>
<path fill-rule="evenodd" clip-rule="evenodd" d="M13.5164 8.47832C13.5164 9.94611 12.9345 11.3541 11.8981 12.3939C10.8616 13.4335 9.45529 14.0202 7.987 14.0253C7.07466 14.0346 6.17461 13.8146 5.36949 13.3855L4.78711 14.4092C5.80535 14.9703 6.95286 15.2549 8.11537 15.2348C9.27786 15.2147 10.4149 14.8904 11.413 14.2945C12.4113 13.6984 13.2358 12.8514 13.8048 11.8377C14.3736 10.824 14.667 9.679 14.6555 8.51671C14.6587 7.62659 14.4831 6.74491 14.139 5.92394C13.7949 5.10297 13.2894 4.35945 12.6524 3.73749L11.8717 4.6012C12.4017 5.09662 12.8219 5.69763 13.1052 6.36545C13.3885 7.03326 13.5286 7.75304 13.5164 8.47832Z" fill="#4F4F4F"/>
<path fill-rule="evenodd" clip-rule="evenodd" d="M1.3252 8.47819C1.32552 9.38711 1.50999 10.2865 1.86745 11.1222C2.22493 11.9578 2.748 12.7125 3.40513 13.3406L4.1859 12.4769C3.38402 11.7138 2.82878 10.7285 2.59157 9.64749C2.35437 8.56648 2.44605 7.43925 2.85482 6.41075C3.26359 5.38224 3.97076 4.4995 4.88541 3.87601C5.80005 3.25252 6.88034 2.9168 7.98738 2.91203C8.93766 2.91075 9.87147 3.16014 10.6945 3.63499L11.2513 2.61133C10.2532 2.05756 9.12882 1.77106 7.98738 1.7796C6.21954 1.79806 4.52991 2.51094 3.28338 3.76427C2.03687 5.0176 1.33351 6.7108 1.3252 8.47819Z" fill="#4F4F4F"/>
<path fill-rule="evenodd" clip-rule="evenodd" d="M13.5553 2.77136L12.8001 3.59669C13.7724 4.54544 14.4401 5.76213 14.7182 7.09169C14.9961 8.42125 14.8719 9.80341 14.3611 11.0621C13.8503 12.3208 12.9763 13.3989 11.8503 14.1591C10.7242 14.9192 9.39733 15.327 8.03866 15.3304C6.89626 15.3333 5.77231 15.0425 4.77477 14.4859L4.19238 15.5095C5.40776 16.18 6.77737 16.5211 8.16533 16.4991C9.55328 16.477 10.9113 16.0925 12.1048 15.3838C13.2982 14.6751 14.2856 13.6667 14.9689 12.4587C15.6521 11.2507 16.0076 9.88518 16 8.49748C15.9929 7.42861 15.7732 6.37183 15.3534 5.38875C14.9337 4.40566 14.3225 3.51592 13.5553 2.77136Z" fill="#4F4F4F"/>
<path fill-rule="evenodd" clip-rule="evenodd" d="M1.18396 8.4783C1.17741 7.28438 1.48479 6.10971 2.07529 5.07194C2.6658 4.03417 3.51871 3.16972 4.54859 2.5652C5.57846 1.96067 6.74915 1.63729 7.94339 1.62744C9.1376 1.61759 10.3135 1.92161 11.3532 2.50907L11.8972 1.52379C10.7476 0.869064 9.45061 0.516839 8.12773 0.500133H7.98693C5.87979 0.496697 3.85693 1.32717 2.36038 2.8101C0.863815 4.29303 0.0152173 6.30785 0 8.41432V8.4975C0.000944926 9.59023 0.228979 10.6709 0.669649 11.6709C1.11032 12.6709 1.754 13.5685 2.55992 14.3068L3.36629 13.443C2.67705 12.8128 2.12696 12.0457 1.75118 11.1908C1.37541 10.336 1.18221 9.41212 1.18396 8.4783Z" fill="#4F4F4F"/>
<path fill-rule="evenodd" clip-rule="evenodd" d="M5.75977 8.47825C5.75851 8.02948 5.89064 7.59047 6.13937 7.2169C6.38811 6.84334 6.74225 6.55206 7.15686 6.38004C7.57146 6.20802 8.02784 6.163 8.46809 6.25071C8.90835 6.33842 9.31256 6.55489 9.62953 6.87267C9.94649 7.19044 10.1619 7.59518 10.2484 8.03553C10.3349 8.47588 10.2886 8.93202 10.1153 9.346C9.94203 9.75998 9.64965 10.1132 9.27525 10.3608C8.90094 10.6084 8.46136 10.7393 8.0125 10.7367C7.41601 10.73 6.84593 10.4897 6.42472 10.0674C6.00351 9.6452 5.76477 9.07459 5.75977 8.47825ZM5.86228 8.47826C5.86354 8.90568 5.99148 9.32319 6.22993 9.67788C6.46839 10.0327 6.80667 10.3089 7.20203 10.4716C7.5974 10.6343 8.03213 10.6762 8.45136 10.592C8.87047 10.5079 9.25531 10.3014 9.55721 9.99872C9.8591 9.69599 10.0645 9.31072 10.1474 8.89139C10.2304 8.47209 10.1872 8.03761 10.0232 7.64284C9.85936 7.24807 9.58205 6.91072 9.22651 6.67338C8.87089 6.43605 8.45296 6.30938 8.0254 6.30938C7.73996 6.30853 7.45715 6.36401 7.19319 6.47263C6.92923 6.58125 6.68932 6.74087 6.48718 6.94236C6.28504 7.14384 6.12466 7.38322 6.01523 7.64678C5.90581 7.91034 5.84948 8.1929 5.84948 8.47826H5.86228Z" fill="#4F4F4F"/>
<path fill-rule="evenodd" clip-rule="evenodd" d="M8.3708 8.47818C8.37079 8.55057 8.34923 8.62133 8.30885 8.68143C8.26848 8.74153 8.21112 8.78826 8.14409 8.81567C8.07707 8.84307 8.00339 8.84991 7.93246 8.83531C7.86153 8.82071 7.79655 8.78534 7.7458 8.7337C7.69505 8.68205 7.66082 8.61648 7.64747 8.54532C7.63413 8.47416 7.64227 8.40065 7.67086 8.33413C7.69946 8.26762 7.74721 8.21111 7.80803 8.17182C7.86886 8.13253 7.94001 8.11222 8.01241 8.1135C8.10702 8.11826 8.19638 8.1584 8.26276 8.22595C8.32915 8.2935 8.36771 8.38353 8.3708 8.47818Z" fill="#4F4F4F"/>
</svg>
